<svg xmlns="http://www.w3.org/2000/svg" width="22.313" height="22.313" viewBox="0 0 22.313 22.313">
  <path id="Path_610" data-name="Path 610" d="M23.2,12.761V23.2a1.116,1.116,0,0,1-1.116,1.116H4.231A1.116,1.116,0,0,1,3.116,23.2V12.761A4.446,4.446,0,0,1,2,9.809V3.116A1.116,1.116,0,0,1,3.116,2H23.2a1.116,1.116,0,0,1,1.116,1.116V9.809A4.451,4.451,0,0,1,23.2,12.761Zm-2.231,1.37a4.47,4.47,0,0,1-4.462-1.37,4.463,4.463,0,0,1-6.694,0,4.451,4.451,0,0,1-4.463,1.37v7.95H20.966ZM15.388,9.809a1.116,1.116,0,1,1,2.231,0,2.231,2.231,0,1,0,4.463,0V4.231H4.231V9.809a2.231,2.231,0,0,0,4.463,0,1.116,1.116,0,0,1,2.231,0,2.231,2.231,0,0,0,4.463,0Z" transform="translate(-2 -2)" fill="#4cc334"/>
</svg>
