<svg xmlns="http://www.w3.org/2000/svg" width="24" height="24" viewBox="0 0 24 24">
  <g id="Group_214" data-name="Group 214" transform="translate(-1040 -823)">
    <rect id="Rectangle_1308" data-name="Rectangle 1308" width="24" height="24" rx="11" transform="translate(1040 823)" opacity="0.5"/>
    <path id="Union_148" data-name="Union 148" d="M.261.263A1.322,1.322,0,0,0,.538,2.092L5.209,6.654.748,11.02a1.168,1.168,0,0,0-.173,1.645,1.214,1.214,0,0,0,1.672-.159L7.167,7.691A1.422,1.422,0,0,0,7.6,6.834a1.532,1.532,0,0,0-.5-1.449L2.119.52A1.723,1.723,0,0,0,.951,0,.958.958,0,0,0,.261.263Z" transform="translate(1049.611 828.535)" fill="#fff"/>
  </g>
</svg>
