<svg xmlns="http://www.w3.org/2000/svg" width="35" height="35" viewBox="0 0 35 35"> <path id="Path_51" data-name="Path 51" d="M20.6,15.129a3.146,3.146,0,0,0-2.045.774l-5.977-3.415a2.647,2.647,0,0,0,.06-.556,2.512,2.512,0,0,0-.06-.556L18.552,7.96a3.146,3.146,0,0,0,2.045.774A3.117,3.117,0,1,0,17.48,5.617a2.512,2.512,0,0,0,.06.556L11.563,9.589a3.146,3.146,0,0,0-2.045-.774,3.117,3.117,0,1,0,0,6.235,3.146,3.146,0,0,0,2.045-.774l5.977,3.415a2.647,2.647,0,0,0-.06.556A3.117,3.117,0,1,0,20.6,15.129Z" transform="matrix(1, 0.017, -0.017, 1, 1.188, 5.558)" fill="currentColor"></path> </svg>