<svg id="Component_89_2" data-name="Component 89 – 2" xmlns="http://www.w3.org/2000/svg" width="16" height="18.333" viewBox="0 0 16 18.333">
  <path id="Union_30" data-name="Union 30" d="M120.693,156.333a1.809,1.809,0,0,1-1.847-1.762V144h12.308v10.571a1.809,1.809,0,0,1-1.847,1.762Zm6.153-10.61v7.125a.62.62,0,0,0,1.231,0v-7.125a.62.62,0,0,0-1.231,0Zm-4.923,0v7.125a.62.62,0,0,0,1.231,0v-7.125a.62.62,0,0,0-1.231,0Zm8-3.056H117.616a.669.669,0,0,1,0-1.333h2.462V140a1.93,1.93,0,0,1,1.846-2h6.154a1.93,1.93,0,0,1,1.846,2v1.334h2.462a.669.669,0,0,1,0,1.333Zm-1.23-1.333V140a.644.644,0,0,0-.616-.667h-6.154a.644.644,0,0,0-.615.667v1.334Z" transform="translate(-117 -138)" fill="#9a9a9a"/>
</svg>
