<svg xmlns="http://www.w3.org/2000/svg" width="28" height="28" viewBox="0 0 28 28">
  <path id="Path_610" data-name="Path 610" d="M28.6,15.5V28.6A1.4,1.4,0,0,1,27.2,30H4.8a1.4,1.4,0,0,1-1.4-1.4V15.5A5.579,5.579,0,0,1,2,11.8V3.4A1.4,1.4,0,0,1,3.4,2H28.6A1.4,1.4,0,0,1,30,3.4v8.4A5.586,5.586,0,0,1,28.6,15.5Zm-2.8,1.719A5.61,5.61,0,0,1,20.2,15.5a5.6,5.6,0,0,1-8.4,0,5.586,5.586,0,0,1-5.6,1.719V27.2H25.8Zm-7-5.424a1.4,1.4,0,1,1,2.8,0,2.8,2.8,0,1,0,5.6,0v-7H4.8v7a2.8,2.8,0,1,0,5.6,0,1.4,1.4,0,0,1,2.8,0,2.8,2.8,0,0,0,5.6,0Z" transform="translate(-2 -2)" fill="#4cc334"/>
</svg>
