<svg xmlns="http://www.w3.org/2000/svg" width="30.516" height="26.158" viewBox="0 0 30.516 26.158">
  <path id="Path_612" data-name="Path 612" d="M6.421,11.713a1.4,1.4,0,0,1,1.355,1.441,9.1,9.1,0,0,1,5.868,2.161h2.941a5.931,5.931,0,0,1,4.544,2.159H25.4a6.757,6.757,0,0,1,6.121,4.107A17.483,17.483,0,0,1,17.264,29,18.651,18.651,0,0,1,7.7,26.612a1.359,1.359,0,0,1-1.274.948H2.355A1.4,1.4,0,0,1,1,26.119V13.154a1.4,1.4,0,0,1,1.355-1.441Zm1.357,4.322v7.233l.061.048a15.433,15.433,0,0,0,9.426,2.8A14.759,14.759,0,0,0,27.882,21.61l.18-.192-.163-.144a3.921,3.921,0,0,0-2.227-.908l-.278-.01H22.533a6.909,6.909,0,0,1,.152,1.442v1.441h-12.2V20.356h9.2l-.046-.112a3.4,3.4,0,0,0-2.835-2.04l-.222-.007H12.615a6.565,6.565,0,0,0-4.836-2.161ZM5.066,14.594H3.711V24.678H5.066ZM18.139,3.9l.48.511.48-.51a3.248,3.248,0,0,1,4.792,0,3.764,3.764,0,0,1,0,5.093l-5.271,5.6-5.272-5.6a3.764,3.764,0,0,1,0-5.093,3.248,3.248,0,0,1,4.792,0ZM15.266,5.936a.754.754,0,0,0-.081.918l.079.1,3.356,3.564,3.356-3.564a.754.754,0,0,0,.079-.919l-.079-.1a.648.648,0,0,0-.865-.082l-.095.084-2.4,2.547-2.395-2.55-.092-.081a.648.648,0,0,0-.865.084Z" transform="translate(-1 -2.842)" fill="#4cc334"/>
</svg>
