<svg xmlns="http://www.w3.org/2000/svg" width="29.486" height="27.106" viewBox="0 0 29.486 27.106">
  <path id="Path_614" data-name="Path 614" d="M3.87,5.266A8.709,8.709,0,0,1,16,4.8a8.709,8.709,0,0,1,12.12.459A9.45,9.45,0,0,1,28.6,17.788L17.941,28.84a2.68,2.68,0,0,1-3.731.145l-.151-.143L3.4,17.788A9.45,9.45,0,0,1,3.87,5.266Zm1.94,2.006a6.541,6.541,0,0,0-.2,8.81l.2.218L16,26.835l7.278-7.525L18.426,14.3l-1.455,1.5a4.023,4.023,0,0,1-5.823,0,4.359,4.359,0,0,1,0-6.02L14.032,6.8a6.025,6.025,0,0,0-8.01.268l-.211.207Zm11.646,4.012a1.341,1.341,0,0,1,1.94,0L25.218,17.3l.972-1a6.539,6.539,0,0,0,.1-8.923,6.033,6.033,0,0,0-8.627-.313l-.21.207-4.367,4.514a1.454,1.454,0,0,0-.107,1.883l.107.123a1.339,1.339,0,0,0,1.821.111l.119-.111Z" transform="translate(-1.257 -2.565)" fill="#4cc334"/>
</svg>
