<svg xmlns="http://www.w3.org/2000/svg" width="27" height="27.026" viewBox="0 0 27 27.026">
  <path id="Union_196" data-name="Union 196" d="M20.841,23.609a13.3,13.3,0,0,1-2.416,1.3,13.589,13.589,0,0,1-10.325,0,13.224,13.224,0,0,1-4.216-2.778,12.916,12.916,0,0,1-2.842-4.121,12.742,12.742,0,0,1,0-10.094A12.906,12.906,0,0,1,3.884,3.8,13.227,13.227,0,0,1,8.1,1.019a13.589,13.589,0,0,1,10.325,0A13.247,13.247,0,0,1,22.64,3.8a12.9,12.9,0,0,1,2.841,4.121,12.742,12.742,0,0,1,0,10.094A12.847,12.847,0,0,1,23.675,21L27,24.309l-2.728,2.717ZM3.858,12.966a9.516,9.516,0,0,0,9.4,9.6,9.517,9.517,0,0,0,9.4-9.6,9.517,9.517,0,0,0-9.4-9.6A9.516,9.516,0,0,0,3.858,12.966Z" fill="#42d921"/>
</svg>
