<svg xmlns="http://www.w3.org/2000/svg" width="24.317" height="20.844" viewBox="0 0 24.317 20.844">
  <path id="Path_612" data-name="Path 612" d="M5.32,9.911A1.116,1.116,0,0,1,6.4,11.059a7.25,7.25,0,0,1,4.676,1.722H13.42A4.726,4.726,0,0,1,17.041,14.5h3.4a5.385,5.385,0,0,1,4.877,3.273A13.931,13.931,0,0,1,13.96,23.687a14.863,14.863,0,0,1-7.625-1.9,1.083,1.083,0,0,1-1.015.755H2.08A1.116,1.116,0,0,1,1,21.391V11.059A1.116,1.116,0,0,1,2.08,9.911ZM6.4,13.355v5.764l.049.038a12.3,12.3,0,0,0,7.511,2.234A11.761,11.761,0,0,0,22.422,17.8l.144-.153-.13-.115a3.125,3.125,0,0,0-1.774-.723L20.44,16.8H18.159a5.505,5.505,0,0,1,.121,1.149v1.148H8.56V16.8h7.333l-.037-.09A2.706,2.706,0,0,0,13.6,15.083l-.177-.006H10.256A5.231,5.231,0,0,0,6.4,13.355ZM4.24,12.207H3.16v8.036H4.24ZM14.658,3.683l.382.408.382-.406a2.588,2.588,0,0,1,3.818,0,3,3,0,0,1,0,4.059l-4.2,4.463-4.2-4.466a3,3,0,0,1,0-4.059,2.588,2.588,0,0,1,3.818,0Zm-2.29,1.624a.6.6,0,0,0-.065.731l.063.079,2.674,2.84,2.674-2.84a.6.6,0,0,0,.063-.732l-.063-.08a.516.516,0,0,0-.689-.065l-.076.067-1.911,2.03L13.131,5.3l-.073-.064a.516.516,0,0,0-.689.067Z" transform="translate(-1 -2.842)" fill="#4cc334"/>
</svg>
