<svg xmlns="http://www.w3.org/2000/svg" width="23.496" height="21.6" viewBox="0 0 23.496 21.6">
  <path id="Path_614" data-name="Path 614" d="M3.339,4.718a6.94,6.94,0,0,1,9.667-.371,6.94,6.94,0,0,1,9.658.365,7.531,7.531,0,0,1,.379,9.984L14.552,23.5a2.135,2.135,0,0,1-2.973.115l-.12-.114L2.967,14.7a7.531,7.531,0,0,1,.372-9.978Zm1.546,1.6a5.212,5.212,0,0,0-.16,7.021l.16.174,8.12,8.394,5.8-6-3.866-4-1.159,1.2a3.206,3.206,0,0,1-4.64,0,3.473,3.473,0,0,1,0-4.8l2.3-2.378a4.8,4.8,0,0,0-6.383.214l-.168.165Zm9.28,3.2a1.068,1.068,0,0,1,1.546,0l4.639,4.8.774-.8a5.211,5.211,0,0,0,.082-7.11,4.807,4.807,0,0,0-6.874-.249l-.167.165-3.48,3.6a1.159,1.159,0,0,0-.085,1.5l.085.1a1.067,1.067,0,0,0,1.451.088l.1-.088Z" transform="translate(-1.257 -2.565)" fill="#4cc334"/>
</svg>
