<svg xmlns="http://www.w3.org/2000/svg" width="20.157" height="18.142" viewBox="0 0 20.157 18.142">
  <path id="Path_722" data-name="Path 722" d="M22.157,3,20.474,4.683,18.8,3,17.118,4.683,15.435,3,13.762,4.683,12.079,3,10.4,4.683,8.723,3,7.039,4.683,5.356,3,3.683,4.683,2,3V19.126a2.022,2.022,0,0,0,2.016,2.016H20.142a2.022,2.022,0,0,0,2.016-2.016ZM11.071,19.126H4.016V13.079h7.055Zm9.071,0H13.087V17.11h7.055Zm0-4.031H13.087V13.079h7.055Zm0-4.031H4.016V8.039H20.142Z" transform="translate(-2 -3)" fill="#4cc334"/>
</svg>
