<svg id="Group_215" data-name="Group 215" xmlns="http://www.w3.org/2000/svg" width="24" height="24" viewBox="0 0 24 24">
  <rect id="Rectangle_1308" data-name="Rectangle 1308" width="24" height="24" rx="11" opacity="0.5"/>
  <path id="Union_148" data-name="Union 148" d="M.261,12.668a1.322,1.322,0,0,1,.277-1.829L5.209,6.277.748,1.911A1.168,1.168,0,0,1,.576.266,1.214,1.214,0,0,1,2.248.426L7.167,5.24A1.422,1.422,0,0,1,7.6,6.1a1.532,1.532,0,0,1-.5,1.449L2.119,12.411a1.723,1.723,0,0,1-1.168.52A.958.958,0,0,1,.261,12.668Z" transform="translate(14.389 18.466) rotate(180)" fill="#fff"/>
</svg>
