<svg id="Component_89_2" data-name="Component 89 – 2" xmlns="http://www.w3.org/2000/svg" width="18.701" height="16.363" viewBox="0 0 18.701 16.363">
  <path id="Path_677" data-name="Path 677" d="M0,1.169v9.35a1.169,1.169,0,0,0,1.169,1.169H4.675V0H1.169A1.169,1.169,0,0,0,0,1.169Z" transform="translate(0 4.675)"/>
  <path id="Path_678" data-name="Path 678" d="M10.7,5.874H7.246a.585.585,0,0,1-.511-.868L7.952,2.814A1.753,1.753,0,0,0,6.844.262L5.986.047A.583.583,0,0,0,5.41.223L.749,5.4A2.921,2.921,0,0,0,0,7.355v6.116a2.925,2.925,0,0,0,2.922,2.922H8.736a2.929,2.929,0,0,0,2.818-2.149L12.8,8.518a2.158,2.158,0,0,0-2.1-2.644Z" transform="translate(5.844 -0.03)"/>
</svg>
