<svg xmlns="http://www.w3.org/2000/svg" width="5.999" height="6" viewBox="0 0 5.999 6">
  <path id="Union_21" data-name="Union 21" d="M2.092,5.195A1.158,1.158,0,0,1,.879,5.121,1.158,1.158,0,0,1,.806,3.909C.307,3.671,0,3.351,0,3s.305-.671.8-.909A1.158,1.158,0,0,1,.879.878,1.158,1.158,0,0,1,2.092.806C2.33.306,2.649,0,3,0s.671.306.909.805A1.158,1.158,0,0,1,5.122.878,1.158,1.158,0,0,1,5.2,2.091c.5.238.805.558.805.909s-.306.671-.805.909a1.158,1.158,0,0,1-.073,1.212,1.158,1.158,0,0,1-1.212.074C3.671,5.695,3.352,6,3,6S2.33,5.695,2.092,5.195Z" transform="translate(-0.001)" fill="red"/>
</svg>
