<svg xmlns="http://www.w3.org/2000/svg" width="24.294" height="18.652" viewBox="0 0 24.294 18.652">
  <g id="Group_1093" data-name="Group 1093" transform="translate(-289 -743.238)">
    <g id="Component_37_803" data-name="Component 37 – 803" transform="translate(290 747.161)">
      <path id="Path_15" data-name="Path 15" d="M7.384,17.286h0a.353.353,0,0,1-.2-.061c-.736-.5-7.187-5.042-7.187-9.18,0-2.642,1.674-4.487,4.072-4.487A4.213,4.213,0,0,1,7.385,5.419,4.212,4.212,0,0,1,10.7,3.557c2.4,0,4.071,1.845,4.071,4.487,0,4.134-6.457,8.676-7.194,9.18A.351.351,0,0,1,7.384,17.286Z" transform="translate(0.006 -3.557)" fill="none" stroke="#41c227" stroke-width="2"/>
    </g>
    <g id="Component_37_804" data-name="Component 37 – 804" transform="translate(300.968 744.238)">
      <path id="Path_15-2" data-name="Path 15" d="M5.656,14.075h0a.27.27,0,0,1-.152-.047c-.564-.386-5.507-3.863-5.507-7.033a3.147,3.147,0,0,1,3.12-3.438A3.228,3.228,0,0,1,5.657,4.984,3.227,3.227,0,0,1,8.2,3.557a3.147,3.147,0,0,1,3.119,3.438c0,3.167-4.947,6.647-5.511,7.033A.269.269,0,0,1,5.656,14.075Z" transform="translate(0.006 -3.557)" fill="#fff" stroke="#41c227" stroke-width="2"/>
    </g>
  </g>
</svg>
