<svg xmlns="http://www.w3.org/2000/svg" width="21.156" height="12.611" viewBox="0 0 21.156 12.611">
  <g id="eye_1_" data-name="eye (1)" transform="translate(0 -98.725)">
    <path id="Path_553" data-name="Path 553" d="M10.578,98.725c-4.042,0-7.708,2.211-10.412,5.8a.837.837,0,0,0,0,1c2.7,3.6,6.37,5.808,10.412,5.808s7.708-2.211,10.412-5.8a.837.837,0,0,0,0-1C18.285,100.936,14.62,98.725,10.578,98.725Zm.29,10.746a4.45,4.45,0,1,1,4.15-4.15A4.452,4.452,0,0,1,10.868,109.471Zm-.134-2.051a2.4,2.4,0,1,1,2.237-2.237A2.392,2.392,0,0,1,10.734,107.419Z" fill="#a8a8a8"/>
  </g>
</svg>
