<svg xmlns="http://www.w3.org/2000/svg" width="24.146" height="17.258" viewBox="0 0 24.146 17.258">
  <path id="Path_552" data-name="Path 552" d="M11.2,29.949,0,20.113c0-1.582,1.2-1.65,1.2-1.65H22.949s1.2.067,1.2,1.65L13,29.949a1.964,1.964,0,0,1-.3.121h0a1.773,1.773,0,0,1-1.2,0h0A1.989,1.989,0,0,1,11.2,29.949Zm.9,2.193a2.649,2.649,0,0,1-1.668-.739C9.152,30.29,0,22.037,0,22.037V34.353a1.354,1.354,0,0,0,1.411,1.368H22.735a1.354,1.354,0,0,0,1.411-1.368V22.037S15.053,30.29,13.77,31.4A2.648,2.648,0,0,1,12.1,32.142Z" transform="translate(0 -18.463)" fill="#707070"/>
</svg>
