<svg id="Component_89_1" data-name="Component 89 – 1" xmlns="http://www.w3.org/2000/svg" width="27" height="27" viewBox="0 0 27 27">
  <circle id="Ellipse_178" data-name="Ellipse 178" cx="13.5" cy="13.5" r="13.5" fill="#ffe6e6"/>
  <path id="Path_52" data-name="Path 52" d="M7.71,17.892h0a.368.368,0,0,1-.208-.064c-.768-.526-7.5-5.264-7.5-9.585,0-2.759,1.748-4.685,4.251-4.685A4.4,4.4,0,0,1,7.711,5.5a4.4,4.4,0,0,1,3.466-1.944c2.5,0,4.251,1.927,4.251,4.685,0,4.316-6.742,9.059-7.511,9.585A.366.366,0,0,1,7.71,17.892Z" transform="translate(6.177 3.71)" fill="red"/>
</svg>
