<svg id="trolley" xmlns="http://www.w3.org/2000/svg" width="18.014" height="15.011" viewBox="0 0 18.014 15.011">
  <path id="Path_393" data-name="Path 393" d="M14.329,15.258H7.578a2.182,2.182,0,0,1-2.1-1.554L3.2,5.973A.675.675,0,0,0,2.538,5.5H.751a.751.751,0,1,1,0-1.5H2.538a2.181,2.181,0,0,1,2.1,1.554L5.065,7h11.48a1.48,1.48,0,0,1,1.188.6,1.418,1.418,0,0,1,.216,1.273L16.4,13.786a2.178,2.178,0,0,1-2.072,1.472ZM16.545,8.5h.008Z" transform="translate(0 -4)" fill="#a8a8a8"/>
  <path id="Path_394" data-name="Path 394" d="M10.5,23A1.5,1.5,0,1,1,12,21.5,1.5,1.5,0,0,1,10.5,23Zm0-1.5h0Z" transform="translate(-2.245 -7.991)" fill="#a8a8a8"/>
  <path id="Path_395" data-name="Path 395" d="M17.5,23A1.5,1.5,0,1,1,19,21.5,1.5,1.5,0,0,1,17.5,23Zm0-1.5h0Z" transform="translate(-3.991 -7.991)" fill="#a8a8a8"/>
</svg>
