<svg id="Component_89_2" data-name="Component 89 – 2" xmlns="http://www.w3.org/2000/svg" width="35" height="35" viewBox="0 0 35 35">
  <circle id="Ellipse_178" data-name="Ellipse 178" cx="17.5" cy="17.5" r="17.5" fill="#ffe6e6"/>
  <path id="Path_52" data-name="Path 52" d="M10,22.139h0a.477.477,0,0,1-.269-.083c-1-.682-9.728-6.824-9.728-12.425,0-3.576,2.266-6.073,5.511-6.073A5.7,5.7,0,0,1,10,6.077a5.7,5.7,0,0,1,4.493-2.52C17.736,3.557,20,6.054,20,9.63c0,5.6-8.74,11.743-9.737,12.425A.475.475,0,0,1,10,22.139Z" transform="translate(8.006 5.863)" fill="red"/>
</svg>
