<svg xmlns="http://www.w3.org/2000/svg" width="18.971" height="17.761" viewBox="0 0 18.971 17.761">
  <g id="Component_37_102" data-name="Component 37 – 102" transform="translate(1 1)">
    <path id="Path_15" data-name="Path 15" d="M8.478,19.318h0a.4.4,0,0,1-.228-.071C7.4,18.669-.006,13.46-.006,8.708c0-3.033,1.922-5.151,4.674-5.151A4.837,4.837,0,0,1,8.479,5.695,4.836,4.836,0,0,1,12.29,3.557c2.752,0,4.674,2.118,4.674,5.151,0,4.746-7.413,9.96-8.259,10.539A.4.4,0,0,1,8.478,19.318Z" transform="translate(0.006 -3.557)" fill="#fff" stroke="#707070" stroke-width="2"/>
  </g>
</svg>
